<svg xmlns="http://www.w3.org/2000/svg" width="512" height="512" viewBox="0 0 512 512" role="img" aria-label="Email">
  <defs>
    <clipPath id="email-icon">
      <!-- Bootstrap Icons envelope-fill, MIT License. -->
      <path d="M.05 3.555A2 2 0 0 1 2 2h12a2 2 0 0 1 1.95 1.555L8 8.414zM0 4.697v7.104l5.803-3.558zM6.761 8.83l-6.57 4.027A2 2 0 0 0 2 14h12a2 2 0 0 0 1.808-1.144l-6.57-4.027L8 9.586zm3.436-.586L16 11.801V4.697z"/>
    </clipPath>
  </defs>
  <g transform="translate(80 80) scale(22)" clip-path="url(#email-icon)">
    <rect width="16" height="16" fill="#4F46E5"/>
    <path fill="#6366F1" d="M0 0h16L8 8.4z"/>
    <path fill="#3B82F6" d="M0 16h16L8 9.1z"/>
    <path fill="#38BDF8" d="M0 4.7 5.8 8.3 0 12.9zM16 4.7l-5.8 3.6 5.8 4.6z"/>
  </g>
</svg>
